<?xml version="1.0" encoding="UTF-8"?>
<svg xmlns="http://www.w3.org/2000/svg" viewBox="0 0 100 100" role="img" aria-label="Ramped AI arrow swoop glyph">
  <defs>
    <linearGradient id="rampedGlyphGradient" x1="17.46" y1="84.69" x2="76" y2="11.64" gradientUnits="userSpaceOnUse">
      <stop offset="0%" stop-color="#0A2540"/>
      <stop offset="58%" stop-color="#006BD6"/>
      <stop offset="100%" stop-color="#00D4FF"/>
    </linearGradient>
  </defs>
  <path fill="url(#rampedGlyphGradient)" d="M 76 11.64 L 69.86 15.63 L 59.41 22.73 L 59.81 22.97 L 65.07 24.48 L 59.97 36.76 L 57.34 42.42 L 54.39 48.25 L 51.67 53.03 L 49.20 57.02 L 46.73 60.61 L 43.14 65.23 L 40.03 68.74 L 36.60 72.09 L 33.49 74.72 L 29.74 77.35 L 27.43 78.71 L 25.36 79.74 L 23.05 80.70 L 19.22 81.82 L 17.46 82.06 L 19.30 82.93 L 21.29 83.65 L 21.85 83.65 L 21.93 83.81 L 23.13 84.13 L 25.92 84.61 L 30.62 84.69 L 34.45 84.05 L 38.36 82.70 L 40.43 81.66 L 43.06 79.98 L 46.41 77.27 L 48.80 74.88 L 50.56 72.89 L 52.79 69.94 L 55.18 66.35 L 57.26 62.84 L 59.57 58.45 L 62.04 53.19 L 64.67 47.05 L 72.17 28.15 L 72.33 28.07 L 76 31.02 Z"/>
</svg>
